<?xml version="1.0" encoding="UTF-8"?>
<svg version="1.1" xmlns="http://www.w3.org/2000/svg" width="128" height="128">
<path d="M0 0 C42.24 0 84.48 0 128 0 C128 42.24 128 84.48 128 128 C85.76 128 43.52 128 0 128 C0 85.76 0 43.52 0 0 Z " fill="#FEFEFE" transform="translate(0,0)"/>
<path d="M0 0 C8.19166939 3.89172333 14.35796467 9.88774784 17.5625 18.4375 C19.77947791 27.47951984 21.23408932 38.35409631 18.5625 47.4375 C17.9025 47.4375 17.2425 47.4375 16.5625 47.4375 C18.15193743 51.58769773 19.8771565 54.97020042 22.5 58.5625 C29.50151063 68.933815 31.21596836 81.21675263 29.5625 93.4375 C28.08729056 96.80450627 26.25872401 98.97823629 23.5625 101.4375 C22.325 102.79875 22.325 102.79875 21.0625 104.1875 C11.21019863 113.05457123 -0.52519007 115.10673558 -13.4375 114.4375 C-23.78480539 113.76384731 -23.78480539 113.76384731 -26.4375 112.4375 C-26.4375 111.7775 -26.4375 111.1175 -26.4375 110.4375 C-27.11296875 110.37691406 -27.7884375 110.31632812 -28.484375 110.25390625 C-29.82242188 110.12822266 -29.82242188 110.12822266 -31.1875 110 C-32.06921875 109.91878906 -32.9509375 109.83757812 -33.859375 109.75390625 C-36.15340734 109.47236592 -38.24969226 109.18155173 -40.4375 108.4375 C-40.7675 107.7775 -41.0975 107.1175 -41.4375 106.4375 C-42.3346875 106.251875 -42.3346875 106.251875 -43.25 106.0625 C-46.17570302 105.22658485 -47.40756116 103.66388453 -49.4375 101.4375 C-50.2728125 100.6640625 -50.2728125 100.6640625 -51.125 99.875 C-55.26054708 95.34559129 -53.77287325 86.39056853 -53.57373047 80.58203125 C-53.01195466 71.73859278 -49.71543159 64.08028687 -45.4375 56.4375 C-44.7775 56.4375 -44.1175 56.4375 -43.4375 56.4375 C-43.19 55.86 -42.9425 55.2825 -42.6875 54.6875 C-41.4375 52.4375 -41.4375 52.4375 -39.3125 50.4375 C-36.98153925 48.40805253 -36.98153925 48.40805253 -37.4375 44.4375 C-38.0975 44.4375 -38.7575 44.4375 -39.4375 44.4375 C-43.21101604 34.28494493 -44.2131104 24.7035265 -39.65234375 14.640625 C-37.89338798 11.45075023 -36.0169119 9.0169119 -33.4375 6.4375 C-32.7775 6.4375 -32.1175 6.4375 -31.4375 6.4375 C-31.4375 5.7775 -31.4375 5.1175 -31.4375 4.4375 C-21.67599236 -2.38134941 -11.39247521 -4.01365665 0 0 Z " fill="#F4F5F9" transform="translate(75.4375,5.5625)"/>
<path d="M0 0 C0.88671387 0.00241699 1.77342773 0.00483398 2.68701172 0.00732422 C7.07267141 0.04534749 10.96406656 0.20494821 15 2 C20.11533669 8.0944441 20.5503194 15.8261862 20.46875 23.50390625 C19.91622155 26.44612026 19.3902421 27.24507279 17 29 C0.22450599 38.1249785 -20.24238125 39.42746458 -38.375 34.21484375 C-43.88718224 32.36754992 -48.86061167 30.13938833 -53 26 C-53.9013343 19.04684969 -52.86301283 13.32248667 -50 7 C-48.68 7 -47.36 7 -46 7 C-46 6.34 -46 5.68 -46 5 C-44.31593731 4.34525592 -42.62753664 3.70166594 -40.9375 3.0625 C-39.99777344 2.70285156 -39.05804688 2.34320313 -38.08984375 1.97265625 C-26.10335565 -1.80058716 -12.41172741 -0.21698187 0 0 Z " fill="#BAC0D2" transform="translate(80,71)"/>
<path d="M0 0 C0 3.30213397 -0.76129022 4.9336903 -2.0625 7.9375 C-4.74629397 15.20291368 -4.63031628 21.64664649 -1.91015625 28.91015625 C0.01782321 32.98293961 1.19488759 35.46325839 5 38 C5 38.66 5 39.32 5 40 C5.66 40 6.32 40 7 40 C7 40.66 7 41.32 7 42 C8.299375 42.433125 8.299375 42.433125 9.625 42.875 C11.68844675 43.56281558 13.73687627 44.30144938 15.75 45.125 C23.58503092 47.2344314 31.2375132 45.84978409 39 44 C39 43.34 39 42.68 39 42 C40.051875 41.4121875 40.051875 41.4121875 41.125 40.8125 C46.89046142 37.17775258 50.29414297 32.60820318 52 26 C52.27759777 22.31490024 52.27759777 22.31490024 52.1875 18.5 C52.18105469 17.2315625 52.17460938 15.963125 52.16796875 14.65625 C52.01606235 11.3496363 51.62618134 8.24612408 51 5 C55.13141641 8.27117628 54.99190763 12.48033683 55.65625 17.4296875 C56.28202502 23.92921446 56.86325505 30.66493284 55 37 C54.34 37 53.68 37 53 37 C54.58943743 41.15019773 56.3146565 44.53270042 58.9375 48.125 C65.93901063 58.496315 67.65346836 70.77925263 66 83 C64.52479056 86.36700627 62.69622401 88.54073629 60 91 C58.7625 92.36125 58.7625 92.36125 57.5 93.75 C47.64769863 102.61707123 35.91230993 104.66923558 23 104 C12.65269461 103.32634731 12.65269461 103.32634731 10 102 C10 101.34 10 100.68 10 100 C9.32453125 99.93941406 8.6490625 99.87882812 7.953125 99.81640625 C6.61507812 99.69072266 6.61507812 99.69072266 5.25 99.5625 C4.36828125 99.48128906 3.4865625 99.40007812 2.578125 99.31640625 C0.28409266 99.03486592 -1.81219226 98.74405173 -4 98 C-4.33 97.34 -4.66 96.68 -5 96 C-5.8971875 95.814375 -5.8971875 95.814375 -6.8125 95.625 C-9.73820302 94.78908485 -10.97006116 93.22638453 -13 91 C-13.8353125 90.2265625 -13.8353125 90.2265625 -14.6875 89.4375 C-18.82304708 84.90809129 -17.33537325 75.95306853 -17.13623047 70.14453125 C-16.57445466 61.30109278 -13.27793159 53.64278687 -9 46 C-8.34 46 -7.68 46 -7 46 C-6.7525 45.4225 -6.505 44.845 -6.25 44.25 C-5 42 -5 42 -2.875 40 C-0.54403925 37.97055253 -0.54403925 37.97055253 -1 34 C-1.66 34 -2.32 34 -3 34 C-6.8744991 23.57575242 -7.57941572 14.28177376 -3.0703125 3.9609375 C-2 2 -2 2 0 0 Z M-5 60 C-5 60.66 -5 61.32 -5 62 C-6.32 62 -7.64 62 -9 62 C-11.85184113 68.29781583 -13.15225048 74.07531022 -12 81 C-10.16821233 83.65021698 -10.16821233 83.65021698 -7 85 C-6.37996094 85.33257812 -5.75992188 85.66515625 -5.12109375 86.0078125 C11.03783469 94.0426388 28.93731633 93.41396623 46 89 C54.42578938 86.44925632 54.42578938 86.44925632 61 81 C62.35988995 73.758586 61.17205225 65.98550822 58 59.3828125 C55.41512519 56.30317649 53.8890038 55.89943697 49.9375 55.25 C46.94093221 55.08778422 43.9971748 55.01818139 41 55 C38.76039413 54.93699406 36.52081245 54.87312457 34.28125 54.80859375 C14.04079655 54.03804285 14.04079655 54.03804285 -5 60 Z " fill="#C9CDDA" transform="translate(39,16)"/>
<path d="M0 0 C2.84503996 1.81135821 5.4073462 3.85043253 8 6 C8.99 6.66 9.98 7.32 11 8 C10.36418022 14.67610772 7.53181622 18.79090582 2.625 23.1875 C-3.86086782 28.48152032 -10.26478922 30.42072229 -18.5390625 30.26953125 C-27.45727647 29.29277448 -33.37751433 24.70113999 -39 18 C-42.47867451 13.65165687 -42.27357285 10.38026599 -42 5 C-40.68 5.33 -39.36 5.66 -38 6 C-38 5.34 -38 4.68 -38 4 C-25.12369547 -1.99676594 -13.78855634 -6.09575656 0 0 Z " fill="#CACFDD" transform="translate(79,30)"/>
<path d="M0 0 C5.84157024 4.53019733 10.33783522 9.53277283 14 16 C14 16.99 14 17.98 14 19 C12.16675453 19.02749868 10.3333829 19.04661673 8.5 19.0625 C7.4790625 19.07410156 6.458125 19.08570312 5.40625 19.09765625 C2 19 2 19 -1.5546875 18.51171875 C-16.58535985 16.49913111 -33.43863388 16.5532537 -48 21 C-49.33175184 21.33959672 -50.66447292 21.67556771 -52 22 C-52 22.66 -52 23.32 -52 24 C-53.32 24 -54.64 24 -56 24 C-56.33 24.99 -56.66 25.98 -57 27 C-57.33 27 -57.66 27 -58 27 C-58 17.47681064 -56.94389518 11.77426517 -50.48828125 4.234375 C-49.36543217 3.11474325 -48.18899916 2.04911691 -47 1 C-43.73112965 2.12367418 -41.04165701 3.59159916 -38.1875 5.5 C-32.0728836 9.38903369 -25.25710976 11.02937727 -18 10 C-10.61262642 8.12113042 -5.43492386 5.31414778 0 0 Z " fill="#E1E5EF" transform="translate(86,54)"/>
<path d="M0 0 C2 2 2 2 3.32421875 4.40234375 C8.07364792 11.76451252 17.66882873 15.16090047 25.80859375 17.2890625 C34.36989339 18.97177856 43.30344993 18.86297204 52 19 C51.34 19.66 50.68 20.32 50 21 C55.88554469 20.46495048 61.65634535 19.67182733 67 17 C68.73538192 14.60775041 68.73538192 14.60775041 70 12 C72.67866468 10.00524971 75.13343484 8.33699756 78.25 7.125 C80.95698346 5.38479635 81.21644718 3.00361913 82 0 C82.33 0 82.66 0 83 0 C83.44408098 5.94861964 80.71256232 8.6613286 77 13 C68.82313219 21.9945546 59.37331805 25.4114762 47.44921875 26.16015625 C31.6725819 26.33629095 31.6725819 26.33629095 27 24 C27 23.34 27 22.68 27 22 C26.32453125 21.93941406 25.6490625 21.87882812 24.953125 21.81640625 C24.06109375 21.73261719 23.1690625 21.64882812 22.25 21.5625 C21.36828125 21.48128906 20.4865625 21.40007812 19.578125 21.31640625 C17.28409266 21.03486592 15.18780774 20.74405173 13 20 C12.67 19.34 12.34 18.68 12 18 C11.401875 17.87625 10.80375 17.7525 10.1875 17.625 C7.26179698 16.78908485 6.02993884 15.22638453 4 13 C3.1646875 12.2265625 3.1646875 12.2265625 2.3125 11.4375 C-0.70551903 8.13205059 -0.0793264 4.20429912 0 0 Z " fill="#DADBE2" transform="translate(22,94)"/>
<path d="M0 0 C0.94875 0.886875 1.8975 1.77375 2.875 2.6875 C17.33696899 15.07092689 35.00087704 14.04585258 53 13 C61.71665358 11.97373739 68.48321683 8.7909803 75 3 C76.32598838 1.99028093 77.65757753 0.987765 79 0 C78.62207203 2.67456717 78.20233084 3.80611814 76.22265625 5.703125 C75.50980469 6.21359375 74.79695313 6.7240625 74.0625 7.25 C73.35222656 7.77078125 72.64195313 8.2915625 71.91015625 8.828125 C70 10 70 10 68 10 C67.773125 10.763125 67.54625 11.52625 67.3125 12.3125 C65.64373467 15.72949567 64.46393426 16.45228469 61 18 C55.98469249 19.48053358 51.25072721 20.26926806 46 20 C46.66 19.34 47.32 18.68 48 18 C46.741875 17.98582031 45.48375 17.97164062 44.1875 17.95703125 C27.55096405 17.57484497 12.31306413 15.31306413 0 3 C0 2.01 0 1.02 0 0 Z " fill="#B9BDC9" transform="translate(24,96)"/>
<path d="M0 0 C0 3.30213397 -0.76129022 4.9336903 -2.0625 7.9375 C-4.74629397 15.20291368 -4.63031628 21.64664649 -1.91015625 28.91015625 C0.01782321 32.98293961 1.19488759 35.46325839 5 38 C5 38.66 5 39.32 5 40 C5.66 40 6.32 40 7 40 C7 40.66 7 41.32 7 42 C8.299375 42.433125 8.299375 42.433125 9.625 42.875 C11.68844675 43.56281558 13.73687627 44.30144938 15.75 45.125 C23.58503092 47.2344314 31.2375132 45.84978409 39 44 C39 43.34 39 42.68 39 42 C40.051875 41.4121875 40.051875 41.4121875 41.125 40.8125 C46.32010763 37.53732345 50.20180892 32.93403056 52 27 C53 30 53 30 51.5 33.25 C46.47276179 41.36564394 40.09915245 45.96391421 30.95703125 48.5859375 C22.77844793 50.31633637 14.68445037 48.29409174 7.6875 43.9375 C6.3571875 42.9784375 6.3571875 42.9784375 5 42 C3.35380887 41.28426473 1.69271945 40.5974304 0 40 C-9.19886659 49.49047331 -13.91894789 59.64018533 -14.625 72.9375 C-14.66367187 73.62134766 -14.70234375 74.30519531 -14.7421875 75.00976562 C-14.83522412 76.67279513 -14.91863787 78.33635847 -15 80 C-17.41981085 77.58018915 -17.2963819 76.94532792 -17.3125 73.625 C-17.07951939 63.51946598 -13.89438136 54.74411216 -9 46 C-8.34 46 -7.68 46 -7 46 C-6.7525 45.4225 -6.505 44.845 -6.25 44.25 C-5 42 -5 42 -2.875 40 C-0.54403925 37.97055253 -0.54403925 37.97055253 -1 34 C-1.66 34 -2.32 34 -3 34 C-6.8744991 23.57575242 -7.57941572 14.28177376 -3.0703125 3.9609375 C-2 2 -2 2 0 0 Z " fill="#BFC2CA" transform="translate(39,16)"/>
<path d="M0 0 C2.45360825 9.11340206 2.45360825 9.11340206 1.0546875 11.84765625 C-0.98957822 16.01947259 -0.83036485 20.49995823 0 25 C6.80899184 32.44238643 19.56524504 34.60448315 29.3046875 35.203125 C37.73351375 35.31378793 45.32633857 34.42708574 53.5390625 32.65625 C56.48182466 32.09825447 59.02242196 31.86309986 62 32 C57.73461308 36.82779984 51.80166591 37.78036348 45.58056641 38.26806641 C41.81981345 38.36604193 38.07413994 38.36030935 34.3125 38.3125 C33.03310547 38.31572266 31.75371094 38.31894531 30.43554688 38.32226562 C18.2470459 38.25261705 7.19183743 35.61734759 -2 27 C-5.48589978 21.77115033 -4.43083922 15.1014436 -4 9 C-3.24509218 5.78243556 -2.40771496 2.40771496 0 0 Z " fill="#D1D6E5" transform="translate(28,72)"/>
<path d="M0 0 C0.99 0 1.98 0 3 0 C3.66 0.66 4.32 1.32 5 2 C4.67 2.33 4.34 2.66 4 3 C3.16217754 8.4405433 3.31759139 12.78748143 6.625 17.3125 C7.71358125 18.57403341 8.83786615 19.80588082 10 21 C10.71929687 21.7425 10.71929687 21.7425 11.453125 22.5 C16.95113434 27.57508555 23.32856069 29.56878735 30.703125 29.2890625 C38.55466142 28.30094397 45.52035429 25.0871123 50.6875 19 C53.37377589 15.52253272 53.37377589 15.52253272 56 12 C57 15 57 15 56.328125 16.7890625 C55.97234375 17.39492188 55.6165625 18.00078125 55.25 18.625 C54.90453125 19.23601563 54.5590625 19.84703125 54.203125 20.4765625 C53 22 53 22 50 23 C49.690625 23.66 49.38125 24.32 49.0625 25 C48 27 48 27 45.875 27.75 C44.946875 27.87375 44.946875 27.87375 44 28 C44 28.66 44 29.32 44 30 C33.81168625 33.64178023 26.06520987 34.40220499 16.03125 29.97265625 C14.68195786 29.3265529 13.33806989 28.66903495 12 28 C12 27.34 12 26.68 12 26 C11.34 26 10.68 26 10 26 C2.00268824 18.67098727 0.49720941 10.44139757 0 0 Z " fill="#E3E8F5" transform="translate(34,30)"/>
<path d="M0 0 C0.33 0 0.66 0 1 0 C1.44408098 5.94861964 -1.28743768 8.6613286 -5 13 C-13.17686781 21.9945546 -22.62668195 25.4114762 -34.55078125 26.16015625 C-50.3274181 26.33629095 -50.3274181 26.33629095 -55 24 C-55 23.34 -55 22.68 -55 22 C-53.56260487 21.97287934 -52.12506137 21.95354933 -50.6875 21.9375 C-49.48673828 21.92009766 -49.48673828 21.92009766 -48.26171875 21.90234375 C-46 22 -46 22 -43 23 C-42.319375 22.690625 -41.63875 22.38125 -40.9375 22.0625 C-37.99624325 20.99864117 -36.43801184 20.94599876 -33.375 21.0625 C-26.90452155 21.18842248 -19.71254398 20.45172245 -14.765625 15.98046875 C-14.18296875 15.32691406 -13.6003125 14.67335938 -13 14 C-10.19573402 11.06826738 -7.1867406 8.50871068 -4 6 C-3.34 6 -2.68 6 -2 6 C-1.34 4.02 -0.68 2.04 0 0 Z " fill="#EFEEF3" transform="translate(104,94)"/>
<path d="M0 0 C5.84157024 4.53019733 10.33783522 9.53277283 14 16 C14 16.99 14 17.98 14 19 C11.8125 19.375 11.8125 19.375 9 19 C6.5 16.25 6.5 16.25 5.26171875 14.6015625 C3.46171997 12.31673433 1.36970312 10.66519679 -1 9 C-1.66 9 -2.32 9 -3 9 C-3 8.34 -3 7.68 -3 7 C-3.66 7 -4.32 7 -5 7 C-5 7.66 -5 8.32 -5 9 C-5.99 8.67 -6.98 8.34 -8 8 C-5.33333333 5.33333333 -2.66666667 2.66666667 0 0 Z M-9 9 C-7 10 -7 10 -7 10 Z " fill="#F9FBFD" transform="translate(86,54)"/>
<path d="M0 0 C3.65316671 1.24976756 4.78065836 1.67098753 7 5 C5.8803014 6.00593243 4.7540588 7.0045849 3.625 8 C2.68527344 8.8353125 2.68527344 8.8353125 1.7265625 9.6875 C0 11 0 11 -2 11 C-2 11.66 -2 12.32 -2 13 C-2.66 13 -3.32 13 -4 13 C-5.20628008 15.33214148 -6.1654738 17.49642139 -7 20 C-7.99 20 -8.98 20 -10 20 C-11.19140625 18.33984375 -11.19140625 18.33984375 -12 16 C-9.29941134 9.89867006 -5.0022709 4.39593504 0 0 Z " fill="#F6F7FB" transform="translate(39,55)"/>
<path d="M0 0 C-4.27659253 4.83856709 -10.21602236 5.78378784 -16.45166016 6.26806641 C-20.24331575 6.36582825 -24.01997277 6.36036127 -27.8125 6.3125 C-29.10865234 6.31572266 -30.40480469 6.31894531 -31.74023438 6.32226562 C-42.16828266 6.26298473 -42.16828266 6.26298473 -47 4 C-46.34 3.34 -45.68 2.68 -45 2 C-42.9531892 2.20815025 -40.90712827 2.42809981 -38.8671875 2.6953125 C-28.34588133 3.81338046 -18.71163541 2.86736506 -8.4609375 0.65625 C-5.51817534 0.09825447 -2.97757804 -0.13690014 0 0 Z " fill="#D8DEEE" transform="translate(90,104)"/>
<path d="M0 0 C0.94875 0.886875 1.8975 1.77375 2.875 2.6875 C9.05415952 7.97856169 16.1692978 11.04232445 24 13 C24.66 13.33 25.32 13.66 26 14 C28.0307477 14.15411106 30.06606421 14.24982453 32.1015625 14.31640625 C33.31328125 14.35830078 34.525 14.40019531 35.7734375 14.44335938 C37.04445312 14.48267578 38.31546875 14.52199219 39.625 14.5625 C40.90375 14.60568359 42.1825 14.64886719 43.5 14.69335938 C46.66655348 14.79969886 49.83318753 14.90172833 53 15 C46.06816666 19.62122223 33.55069252 17.88046234 25.56201172 16.61328125 C15.75854657 14.45914696 7.14507917 10.14507917 0 3 C0 2.01 0 1.02 0 0 Z " fill="#969BA8" transform="translate(24,96)"/>
<path d="M0 0 C1 3 1 3 -0.5 6.25 C-5.52723821 14.36564394 -11.90084755 18.96391421 -21.04296875 21.5859375 C-29.07615141 23.28557295 -37.6039617 21.37309746 -44.5 17 C-47 15 -47 15 -49 12 C-47.68 12.33 -46.36 12.66 -45 13 C-45 13.66 -45 14.32 -45 15 C-43.700625 15.433125 -43.700625 15.433125 -42.375 15.875 C-40.31155325 16.56281558 -38.26312373 17.30144938 -36.25 18.125 C-28.41496908 20.2344314 -20.7624868 18.84978409 -13 17 C-13 16.34 -13 15.68 -13 15 C-12.29875 14.608125 -11.5975 14.21625 -10.875 13.8125 C-5.67989237 10.53732345 -1.79819108 5.93403056 0 0 Z " fill="#A8ADB9" transform="translate(91,43)"/>
<path d="M0 0 C1.86978516 0.47566406 1.86978516 0.47566406 3.77734375 0.9609375 C9.35874183 2.20124818 14.86257297 2.44393018 20.5625 2.625 C21.57119141 2.66367188 22.57988281 2.70234375 23.61914062 2.7421875 C26.0792564 2.83546203 28.53938366 2.92125516 31 3 C28.84023816 5.15976184 28.00568118 5.41570555 25.125 6.0625 C24.44695312 6.21847656 23.76890625 6.37445313 23.0703125 6.53515625 C22.38710937 6.68855469 21.70390625 6.84195313 21 7 C19.94425781 7.30744141 19.94425781 7.30744141 18.8671875 7.62109375 C17 8 17 8 15 7 C13.58522711 6.87267044 12.16798137 6.77190365 10.75 6.6875 C6.09673418 6.22142168 3.55963974 5.01200286 0 2 C0 1.34 0 0.68 0 0 Z " fill="#D4D6DF" transform="translate(43,110)"/>
<path d="M0 0 C4.13141641 3.27117628 3.99190763 7.48033683 4.65625 12.4296875 C5.28202502 18.92921446 5.86325505 25.66493284 4 32 C3.34 32 2.68 32 2 32 C2 32.99 2 33.98 2 35 C1.34 35 0.68 35 0 35 C-0.98570915 30.66287974 -0.94602481 28.87740064 1 25 C1.2875912 22.88010298 1.2875912 22.88010298 1.23046875 20.6640625 C1.22853516 19.84679687 1.22660156 19.02953125 1.22460938 18.1875 C1.21236328 17.341875 1.20011719 16.49625 1.1875 15.625 C1.18685547 14.78710938 1.18621094 13.94921875 1.18554688 13.0859375 C1.1539341 8.61799887 0.89499224 4.3962019 0 0 Z " fill="#DDDEE4" transform="translate(90,21)"/>
<path d="M0 0 C0.33 0 0.66 0 1 0 C1.37397031 5.12873575 -0.17383371 7.20876923 -3.30859375 11.078125 C-9.29543512 17.88072535 -16.53571569 21.62954005 -25.6875 22.25 C-26.450625 22.1675 -27.21375 22.085 -28 22 C-25.19000838 20.49579036 -22.50408988 19.53327691 -19.4375 18.6875 C-15.75487622 17.52854741 -15.75487622 17.52854741 -13.3125 14.5625 C-12.879375 13.716875 -12.44625 12.87125 -12 12 C-9.32133532 10.00524971 -6.86656516 8.33699756 -3.75 7.125 C-1.04301654 5.38479635 -0.78355282 3.00361913 0 0 Z " fill="#E0E0E6" transform="translate(104,94)"/>
<path d="M0 0 C0.66 0.33 1.32 0.66 2 1 C0.85569823 4.87302138 -0.23320098 8.00263439 -3 11 C-3.66 11 -4.32 11 -5 11 C-5.2475 11.639375 -5.495 12.27875 -5.75 12.9375 C-7 15 -7 15 -9.125 15.75 C-10.053125 15.87375 -10.053125 15.87375 -11 16 C-11 16.66 -11 17.32 -11 18 C-15.625 20.125 -15.625 20.125 -19 19 C-19.99 18.34 -20.98 17.68 -22 17 C-21.41992188 16.82984375 -20.83984375 16.6596875 -20.2421875 16.484375 C-11.46087808 13.76014039 -5.21832021 9.82362705 -0.6875 1.625 C-0.460625 1.08875 -0.23375 0.5525 0 0 Z " fill="#DEE4F1" transform="translate(89,42)"/>
<path d="M0 0 C2 2 2 2 2.25 5.25 C1.67962398 13.80564025 -2.25644859 17.98930667 -8 24 C-8.66 23.67 -9.32 23.34 -10 23 C-9 20 -9 20 -6.625 18.125 C-2.96426793 15.16155023 -1.28689924 12.97208408 -0.59765625 8.234375 C-0.34077743 5.48964245 -0.13981855 2.75297897 0 0 Z " fill="#EFEFF4" transform="translate(105,88)"/>
<path d="M0 0 C0.33 0 0.66 0 1 0 C1.50377768 2.26999825 2.00290019 4.54103003 2.5 6.8125 C2.7784375 8.07707031 3.056875 9.34164062 3.34375 10.64453125 C4 14 4 14 4 17 C4.66 17 5.32 17 6 17 C6.33 18.32 6.66 19.64 7 21 C6.01 21.66 5.02 22.32 4 23 C0.5326946 15.13664668 -0.53847315 8.57069757 0 0 Z " fill="#E6E8ED" transform="translate(32,33)"/>
<path d="M0 0 C-5.15304688 3.23905804 -9.80537703 5.11175034 -15.8125 6.125 C-16.78832031 6.29257813 -17.76414062 6.46015625 -18.76953125 6.6328125 C-19.87361328 6.81457031 -19.87361328 6.81457031 -21 7 C-21 6.01 -21 5.02 -21 4 C-20.3709375 3.89042969 -19.741875 3.78085938 -19.09375 3.66796875 C-14.74443609 2.86229765 -10.66940727 1.9797361 -6.5625 0.3125 C-3 -1 -3 -1 0 0 Z " fill="#EEEEF0" transform="translate(93,113)"/>
<path d="M0 0 C0.268125 0.639375 0.53625 1.27875 0.8125 1.9375 C1.88667752 4.33131686 1.88667752 4.33131686 5 5 C6.7890625 7.109375 6.7890625 7.109375 8.625 9.75 C9.23601562 10.61109375 9.84703125 11.4721875 10.4765625 12.359375 C11.99239949 14.98682579 12.60266586 17.0146246 13 20 C10.58851697 17.03202088 8.26715024 14.01599081 6 10.9375 C3.85261582 8.05433698 1.65001703 5.44616956 -1 3 C-0.67 2.01 -0.34 1.02 0 0 Z " fill="#C7CAD0" transform="translate(88,52)"/>
<path d="M0 0 C2.9518568 0.43409659 5.13831529 1.07069448 7.8125 2.4375 C11.53270871 4.26113172 14.96461714 5.09551763 19 6 C19 6.33 19 6.66 19 7 C17.41632253 6.85795259 15.83306682 6.71119847 14.25 6.5625 C13.36828125 6.48128906 12.4865625 6.40007812 11.578125 6.31640625 C9.28409266 6.03486592 7.18780774 5.74405173 5 5 C4.67 4.34 4.34 3.68 4 3 C1.97536745 2.34786708 1.97536745 2.34786708 0 2 C0 1.34 0 0.68 0 0 Z " fill="#E9E8EB" transform="translate(30,109)"/>
<path d="M0 0 C1 3 1 3 -0.5 6.25 C-3.03862837 10.44231234 -6.4205325 13.69200897 -10 17 C-10.99 16.34 -11.98 15.68 -13 15 C-12.29875 14.649375 -11.5975 14.29875 -10.875 13.9375 C-5.75270541 10.48551886 -1.81434338 5.98733316 0 0 Z " fill="#B0B5BF" transform="translate(91,43)"/>
<path d="M0 0 C0.99 0 1.98 0 3 0 C3.66 0.66 4.32 1.32 5 2 C4.67 2.33 4.34 2.66 4 3 C3.76712992 4.68183948 3.58735834 6.3712416 3.4375 8.0625 C3.31181641 9.44115234 3.31181641 9.44115234 3.18359375 10.84765625 C3.12300781 11.55792969 3.06242187 12.26820312 3 13 C2.34 12.67 1.68 12.34 1 12 C0.5859375 9.27734375 0.5859375 9.27734375 0.375 5.9375 C0.30023438 4.83277344 0.22546875 3.72804687 0.1484375 2.58984375 C0.09945312 1.73519531 0.05046875 0.88054688 0 0 Z " fill="#E9ECF5" transform="translate(34,30)"/>
<path d="M0 0 C-2 2 -2 2 -4.6015625 2.1953125 C-5.59929687 2.17210938 -6.59703125 2.14890625 -7.625 2.125 C-9.12933594 2.09792969 -9.12933594 2.09792969 -10.6640625 2.0703125 C-11.43492188 2.04710938 -12.20578125 2.02390625 -13 2 C-7.89905865 -1.40062757 -5.96067238 -0.86525889 0 0 Z " fill="#E0E1E8" transform="translate(74,116)"/>
<path d="M0 0 C4.39158329 1.4638611 4.87947433 3.97831338 7 8 C6.34 8.66 5.68 9.32 5 10 C4.16121545 8.71186658 3.32913217 7.41936744 2.5 6.125 C2.0359375 5.40570313 1.571875 4.68640625 1.09375 3.9453125 C0 2 0 2 0 0 Z " fill="#DBE0EC" transform="translate(36,43)"/>
<path d="M0 0 C3.03368793 3.03368793 5 5.63755776 5 10 C4.01 9.67 3.02 9.34 2 9 C2 8.34 2 7.68 2 7 C1.34 7 0.68 7 0 7 C0 4.69 0 2.38 0 0 Z " fill="#D9DDE5" transform="translate(22,94)"/>
<path d="M0 0 C3.11198065 1.49836105 6.0534615 3.19933758 9 5 C8.67 5.66 8.34 6.32 8 7 C5.05043472 5.63055898 2.47531189 4.12169591 0 2 C0 1.34 0 0.68 0 0 Z " fill="#C9CFE0" transform="translate(26,97)"/>
<path d="M0 0 C0 3.52032428 -0.70351351 4.4385343 -3 7 C-3.66 7 -4.32 7 -5 7 C-5 7.66 -5 8.32 -5 9 C-5.99 8.67 -6.98 8.34 -8 8 C-5.33333333 5.33333333 -2.66666667 2.66666667 0 0 Z M-9 9 C-7 10 -7 10 -7 10 Z " fill="#EDF1F9" transform="translate(86,54)"/>
<path d="M0 0 C1.45792884 -0.05399736 2.91642712 -0.09279177 4.375 -0.125 C5.18710937 -0.14820312 5.99921875 -0.17140625 6.8359375 -0.1953125 C9 0 9 0 11 2 C7.7 2.33 4.4 2.66 1 3 C0.67 2.01 0.34 1.02 0 0 Z " fill="#E6E7EA" transform="translate(49,116)"/>
<path d="M0 0 C0.99 0.66 1.98 1.32 3 2 C-2.2734375 5.22265625 -2.2734375 5.22265625 -4 6 C-4.66 5.67 -5.32 5.34 -6 5 C-5 2 -5 2 -2.625 0.6875 C-1.75875 0.460625 -0.8925 0.23375 0 0 Z " fill="#C5CCDD" transform="translate(93,101)"/>
<path d="M0 0 C0.66 0.33 1.32 0.66 2 1 C0.90931332 4.77545388 0.0916909 7.47043472 -3 10 C-1.125 2.25 -1.125 2.25 0 0 Z " fill="#D6DCE8" transform="translate(89,42)"/>
<path d="M0 0 C0.33 0.99 0.66 1.98 1 3 C-2.75 6 -2.75 6 -5 6 C-5 6.66 -5 7.32 -5 8 C-5.99 7.67 -6.98 7.34 -8 7 C-7.236875 6.401875 -6.47375 5.80375 -5.6875 5.1875 C-3.6516425 3.53040668 -1.8021721 1.89702326 0 0 Z " fill="#CED0DC" transform="translate(100,100)"/>
</svg>
